<?xml version="1.0" standalone="no"?>
<!DOCTYPE svg PUBLIC "-//W3C//DTD SVG 20010904//EN"
 "http://www.w3.org/TR/2001/REC-SVG-20010904/DTD/svg10.dtd">
<svg version="1.0" xmlns="http://www.w3.org/2000/svg"
 width="288.000000pt" height="288.000000pt" viewBox="0 0 288.000000 288.000000"
 preserveAspectRatio="xMidYMid meet">
<metadata>
Created by potrace 1.14, written by Peter Selinger 2001-2017
</metadata>
<g transform="translate(0.000000,288.000000) scale(0.100000,-0.100000)"
fill="#000000" stroke="none">
<path d="M0 1440 l0 -1440 1440 0 1440 0 0 1440 0 1440 -1440 0 -1440 0 0
-1440z m1965 628 c9 -13 25 -53 36 -90 15 -48 30 -76 54 -96 l33 -29 -2 -279
c-1 -153 -6 -290 -10 -304 -4 -14 -10 -37 -13 -53 -6 -32 -31 -48 -61 -40 -19
5 -20 10 -15 57 15 119 -1 464 -22 484 -9 9 -89 -81 -120 -133 -22 -39 -31
-88 -41 -230 -3 -38 -9 -73 -13 -78 -4 -4 -37 -10 -74 -14 -80 -7 -91 11 -26
41 27 12 37 21 29 26 -10 6 -11 36 -3 136 11 135 23 174 86 264 l25 35 -62 22
c-75 28 -129 28 -226 3 -102 -28 -188 -41 -295 -46 -77 -3 -87 -2 -67 9 12 7
19 16 16 20 -4 4 10 7 32 7 55 1 105 13 214 53 l95 34 -3 41 c-3 31 1 45 18
62 22 22 30 22 103 4 21 -5 47 3 112 35 47 24 85 46 85 51 0 7 57 26 87 29 6
1 19 -9 28 -21z m-1062 -309 c5 -9 7 -28 3 -42 -7 -30 -49 -46 -75 -30 -20 13
-26 60 -10 79 16 19 69 14 82 -7z m245 4 c-10 -2 -26 -2 -35 0 -10 3 -2 5 17
5 19 0 27 -2 18 -5z m-439 -647 c8 -9 8 -16 2 -20 -5 -4 -12 -2 -16 4 -9 15
-41 12 -55 -5 -29 -35 26 -85 58 -53 17 17 28 2 12 -17 -16 -20 -64 -19 -84 1
-19 18 -21 75 -4 92 16 16 73 15 87 -2z m193 -33 c3 -41 6 -48 26 -51 21 -3
29 11 23 42 -4 18 9 56 19 56 16 0 12 -96 -4 -109 -8 -7 -30 -11 -48 -9 -28 3
-34 8 -38 33 -7 37 -1 85 11 85 4 0 9 -21 11 -47z m333 37 c-3 -5 -13 -10 -21
-10 -10 0 -14 -13 -14 -50 0 -38 -4 -50 -15 -50 -11 0 -15 12 -15 50 0 43 -3
50 -20 50 -11 0 -20 5 -20 10 0 6 25 10 56 10 34 0 53 -4 49 -10z m242 -7 c3
-8 -6 -10 -31 -6 -46 7 -49 -13 -4 -25 40 -10 57 -34 39 -56 -17 -20 -75 -21
-91 -1 -12 14 -8 15 28 9 53 -8 56 10 7 30 -33 14 -46 42 -28 60 11 11 76 2
80 -11z m193 -8 c0 -20 5 -25 25 -25 20 0 25 5 25 25 0 16 6 25 15 25 12 0 15
-13 15 -60 0 -47 -3 -60 -15 -60 -9 0 -15 9 -15 25 0 20 -5 25 -25 25 -20 0
-25 -5 -25 -25 0 -16 -6 -25 -15 -25 -12 0 -15 13 -15 60 0 47 3 60 15 60 9 0
15 -9 15 -25z m350 -7 c13 -25 13 -31 0 -55 -31 -56 -110 -36 -110 27 0 63 79
83 110 28z m260 22 c0 -5 -9 -10 -20 -10 -17 0 -20 -7 -20 -50 0 -27 -4 -50
-10 -50 -5 0 -10 23 -10 50 0 43 -3 50 -20 50 -11 0 -20 5 -20 10 0 6 23 10
50 10 28 0 50 -4 50 -10z m-1941 -259 c7 -5 11 -14 7 -20 -5 -8 -12 -7 -25 1
-28 17 -51 3 -51 -32 0 -35 23 -49 51 -32 24 15 29 15 29 -2 0 -16 -21 -26
-55 -26 -25 0 -55 33 -55 60 0 46 59 76 99 51z m273 -8 c37 -34 10 -103 -42
-103 -38 0 -60 24 -60 65 0 52 61 75 102 38z m229 -25 l24 -43 3 43 c5 64 22
50 22 -18 0 -74 -17 -79 -54 -17 l-26 42 0 -42 c0 -24 -4 -43 -10 -43 -6 0
-10 27 -10 60 0 73 16 79 51 18z m300 26 c11 -14 9 -15 -25 -8 -30 5 -38 4
-34 -7 2 -7 19 -17 37 -21 28 -8 32 -13 29 -36 -3 -23 -8 -27 -39 -30 -23 -2
-40 2 -48 12 -11 14 -9 15 20 13 44 -3 53 14 13 25 -36 9 -50 33 -33 54 16 19
64 18 80 -2z m189 -21 c0 -47 12 -66 36 -61 15 2 20 14 22 51 4 62 22 61 22
-1 0 -54 -12 -72 -50 -72 -14 0 -31 5 -38 12 -14 14 -16 108 -2 108 6 0 10
-17 10 -37z m270 -13 c0 -49 1 -50 30 -50 17 0 30 -4 30 -10 0 -5 -20 -10 -45
-10 l-45 0 0 60 c0 47 3 60 15 60 11 0 15 -12 15 -50z m310 40 c0 -5 -7 -10
-15 -10 -11 0 -15 -12 -15 -50 0 -38 -4 -50 -15 -50 -11 0 -15 12 -15 50 0 43
-3 50 -20 50 -11 0 -20 5 -20 10 0 6 23 10 50 10 28 0 50 -4 50 -10z m180 -50
c0 -33 -4 -60 -10 -60 -6 0 -10 27 -10 60 0 33 4 60 10 60 6 0 10 -27 10 -60z
m221 18 l24 -43 3 43 c5 64 22 50 22 -18 0 -74 -17 -79 -54 -17 l-26 42 0 -42
c0 -24 -4 -43 -10 -43 -6 0 -10 27 -10 60 0 73 16 79 51 18z m308 29 c15 -19
3 -28 -20 -14 -14 9 -24 9 -37 1 -37 -24 -21 -74 24 -74 28 0 30 8 7 26 -16
12 -15 13 15 14 25 0 32 -4 32 -20 0 -37 -74 -55 -104 -24 -22 21 -21 80 2 93
24 15 68 13 81 -2z"/>
<path d="M1917 1987 c-3 -9 1 -18 10 -21 23 -9 29 2 11 20 -13 14 -16 14 -21
1z"/>
<path d="M1940 1095 c-20 -24 3 -67 33 -63 18 2 22 9 22 38 0 28 -4 36 -21 38
-11 2 -27 -4 -34 -13z"/>
<path d="M540 831 c-15 -29 4 -63 33 -59 18 2 22 10 22 38 0 28 -4 36 -22 38
-14 2 -26 -4 -33 -17z"/>
</g>
</svg>
